<svg xmlns="http://www.w3.org/2000/svg" width="235" height="235" fill="none"><path fill="#fff" d="M148.863 148.401a23.61 23.61 0 0 1-5.752-.698c-1.824-.462-3.481-1.138-4.876-1.99-1.396-.853-2.503-1.865-3.259-2.979-.755-1.113-1.144-2.307-1.144-3.513 0-1.205.389-2.399 1.144-3.513.756-1.114 1.863-2.126 3.259-2.978 1.395-.852 3.052-1.529 4.876-1.99a23.61 23.61 0 0 1 5.752-.699c3.987 0 7.81.967 10.629 2.689s4.402 4.057 4.402 6.491c0 2.435-1.583 4.77-4.402 6.492-2.819 1.721-6.642 2.688-10.629 2.688Zm70.146 0c-1.974 0-3.929-.237-5.753-.698-1.823-.462-3.48-1.138-4.876-1.99-1.396-.853-2.503-1.865-3.258-2.979-.756-1.113-1.145-2.307-1.145-3.513 0-1.205.389-2.399 1.145-3.513.755-1.114 1.862-2.126 3.258-2.978 1.396-.852 3.053-1.529 4.876-1.99a23.619 23.619 0 0 1 5.753-.699c3.986 0 7.809.967 10.628 2.689s4.403 4.057 4.403 6.491c0 2.435-1.584 4.77-4.403 6.492-2.819 1.721-6.642 2.688-10.628 2.688Zm-70.146 42.841a23.61 23.61 0 0 1-5.752-.699c-1.824-.461-3.481-1.137-4.876-1.99-1.396-.852-2.503-1.864-3.259-2.978-.755-1.114-1.144-2.308-1.144-3.513 0-1.206.389-2.4 1.144-3.513.756-1.114 1.863-2.126 3.259-2.979 1.395-.852 3.052-1.528 4.876-1.99a23.61 23.61 0 0 1 5.752-.698c3.987 0 7.81.967 10.629 2.688 2.819 1.722 4.402 4.057 4.402 6.492 0 2.434-1.583 4.769-4.402 6.491-2.819 1.722-6.642 2.689-10.629 2.689Zm70.146 0c-1.974 0-3.929-.238-5.753-.699-1.823-.461-3.48-1.137-4.876-1.99-1.396-.852-2.503-1.864-3.258-2.978-.756-1.114-1.145-2.308-1.145-3.513 0-1.206.389-2.4 1.145-3.513.755-1.114 1.862-2.126 3.258-2.979 1.396-.852 3.053-1.528 4.876-1.99a23.618 23.618 0 0 1 5.753-.698c3.986 0 7.809.967 10.628 2.688 2.819 1.722 4.403 4.057 4.403 6.492 0 2.434-1.584 4.769-4.403 6.491-2.819 1.722-6.642 2.689-10.628 2.689Zm-70.146 42.84c-3.986 0-7.81-.967-10.628-2.688-2.819-1.722-4.403-4.057-4.403-6.492 0-2.434 1.584-4.769 4.403-6.491 2.818-1.722 6.642-2.689 10.628-2.689 3.987 0 7.81.967 10.629 2.689s4.402 4.057 4.402 6.491c0 2.435-1.583 4.77-4.402 6.492-2.819 1.721-6.642 2.688-10.629 2.688Zm70.146 0c-3.987 0-7.81-.967-10.629-2.688-2.819-1.722-4.403-4.057-4.403-6.492 0-2.434 1.584-4.769 4.403-6.491 2.819-1.722 6.642-2.689 10.629-2.689 3.986 0 7.809.967 10.628 2.689s4.403 4.057 4.403 6.491c0 2.435-1.584 4.77-4.403 6.492-2.819 1.721-6.642 2.688-10.628 2.688ZM15.655 148.592a23.61 23.61 0 0 1-5.752-.698c-1.823-.462-3.48-1.138-4.876-1.99-1.396-.853-2.503-1.865-3.259-2.979-.755-1.114-1.144-2.307-1.144-3.513 0-1.205.389-2.399 1.144-3.513.756-1.114 1.863-2.126 3.259-2.978 1.396-.853 3.053-1.529 4.876-1.99a23.61 23.61 0 0 1 5.752-.699c3.987 0 7.81.967 10.629 2.689 2.819 1.721 4.403 4.056 4.403 6.491 0 2.435-1.584 4.77-4.403 6.492-2.819 1.721-6.642 2.688-10.629 2.688Zm70.146 0a23.61 23.61 0 0 1-5.752-.698c-1.824-.462-3.481-1.138-4.877-1.99-1.396-.853-2.503-1.865-3.258-2.979-.755-1.114-1.144-2.307-1.144-3.513 0-1.205.389-2.399 1.144-3.513.755-1.114 1.862-2.126 3.258-2.978 1.396-.853 3.053-1.529 4.877-1.99a23.61 23.61 0 0 1 5.752-.699c3.986 0 7.81.967 10.629 2.689 2.818 1.721 4.402 4.056 4.402 6.491 0 2.435-1.584 4.77-4.402 6.492-2.82 1.721-6.643 2.688-10.63 2.688Zm-70.146 42.841a23.61 23.61 0 0 1-5.752-.699c-1.823-.461-3.48-1.138-4.876-1.99-1.396-.852-2.503-1.864-3.259-2.978-.755-1.114-1.144-2.308-1.144-3.513 0-1.206.389-2.4 1.144-3.513.756-1.114 1.863-2.126 3.259-2.979 1.396-.852 3.053-1.528 4.876-1.99a23.61 23.61 0 0 1 5.752-.698c3.987 0 7.81.967 10.629 2.688 2.819 1.722 4.403 4.057 4.403 6.492 0 2.434-1.584 4.769-4.403 6.491-2.819 1.722-6.642 2.689-10.629 2.689Zm70.146 0a23.61 23.61 0 0 1-5.752-.699c-1.824-.461-3.481-1.138-4.877-1.99-1.396-.852-2.503-1.864-3.258-2.978-.755-1.114-1.144-2.308-1.144-3.513 0-1.206.389-2.4 1.144-3.513.755-1.114 1.862-2.126 3.258-2.979 1.396-.852 3.053-1.528 4.877-1.99a23.61 23.61 0 0 1 5.752-.698c3.986 0 7.81.967 10.629 2.688 2.818 1.722 4.402 4.057 4.402 6.492 0 2.434-1.584 4.769-4.402 6.491-2.82 1.722-6.643 2.689-10.63 2.689Zm-70.146 42.84c-3.986 0-7.81-.967-10.628-2.689-2.82-1.721-4.403-4.056-4.403-6.491 0-2.435 1.584-4.77 4.403-6.491 2.819-1.722 6.642-2.689 10.628-2.689 3.987 0 7.81.967 10.629 2.689 2.819 1.721 4.403 4.056 4.403 6.491 0 2.435-1.584 4.77-4.403 6.491-2.819 1.722-6.642 2.689-10.629 2.689Zm70.146 0c-3.987 0-7.81-.967-10.629-2.689-2.819-1.721-4.402-4.056-4.402-6.491 0-2.435 1.583-4.77 4.402-6.491 2.82-1.722 6.642-2.689 10.629-2.689 3.986 0 7.81.967 10.629 2.689 2.818 1.721 4.402 4.056 4.402 6.491 0 2.435-1.584 4.77-4.402 6.491-2.82 1.722-6.643 2.689-10.63 2.689ZM148.863 18.36a23.59 23.59 0 0 1-5.752-.699c-1.824-.46-3.481-1.137-4.876-1.99-1.396-.852-2.503-1.864-3.259-2.978-.755-1.114-1.144-2.307-1.144-3.513 0-1.205.389-2.4 1.144-3.513.756-1.114 1.863-2.126 3.259-2.978 1.395-.853 3.052-1.529 4.876-1.99A23.594 23.594 0 0 1 148.863 0c3.987 0 7.81.967 10.629 2.689 2.819 1.721 4.402 4.056 4.402 6.491 0 2.435-1.583 4.77-4.402 6.491-2.819 1.722-6.642 2.69-10.629 2.69Zm70.146 0a23.6 23.6 0 0 1-5.753-.699c-1.823-.46-3.48-1.137-4.876-1.99-1.396-.852-2.503-1.864-3.258-2.978-.756-1.114-1.145-2.307-1.145-3.513 0-1.205.389-2.4 1.145-3.513.755-1.114 1.862-2.126 3.258-2.978 1.396-.853 3.053-1.529 4.876-1.99A23.602 23.602 0 0 1 219.009 0c3.986 0 7.809.967 10.628 2.689 2.819 1.721 4.403 4.056 4.403 6.491 0 2.435-1.584 4.77-4.403 6.491-2.819 1.722-6.642 2.69-10.628 2.69ZM148.863 61.2c-1.974 0-3.928-.237-5.752-.698-1.824-.461-3.481-1.138-4.876-1.99-1.396-.853-2.503-1.865-3.259-2.978-.755-1.114-1.144-2.308-1.144-3.513 0-1.206.389-2.4 1.144-3.514.756-1.113 1.863-2.125 3.259-2.978 1.395-.852 3.052-1.528 4.876-1.99a23.59 23.59 0 0 1 5.752-.699c3.987 0 7.81.968 10.629 2.69 2.819 1.72 4.402 4.056 4.402 6.49 0 2.435-1.583 4.77-4.402 6.492-2.819 1.721-6.642 2.689-10.629 2.689Zm70.146 0c-1.974 0-3.929-.237-5.753-.698-1.823-.461-3.48-1.138-4.876-1.99-1.396-.853-2.503-1.865-3.258-2.978-.756-1.114-1.145-2.308-1.145-3.513 0-1.206.389-2.4 1.145-3.514.755-1.113 1.862-2.125 3.258-2.978 1.396-.852 3.053-1.528 4.876-1.99a23.6 23.6 0 0 1 5.753-.699c3.986 0 7.809.968 10.628 2.69 2.819 1.72 4.403 4.056 4.403 6.49 0 2.435-1.584 4.77-4.403 6.492-2.819 1.721-6.642 2.689-10.628 2.689Zm-70.146 42.841c-3.986 0-7.81-.967-10.628-2.689-2.819-1.721-4.403-4.056-4.403-6.49 0-2.436 1.584-4.77 4.403-6.492 2.818-1.722 6.642-2.689 10.628-2.689 3.987 0 7.81.967 10.629 2.689 2.819 1.721 4.402 4.056 4.402 6.491 0 2.435-1.583 4.77-4.402 6.491-2.819 1.722-6.642 2.689-10.629 2.689Zm70.146 0c-3.987 0-7.81-.967-10.629-2.689-2.819-1.721-4.403-4.056-4.403-6.49 0-2.436 1.584-4.77 4.403-6.492 2.819-1.722 6.642-2.689 10.629-2.689 3.986 0 7.809.967 10.628 2.689 2.819 1.721 4.403 4.056 4.403 6.491 0 2.435-1.584 4.77-4.403 6.491-2.819 1.722-6.642 2.689-10.628 2.689ZM15.655 18.36c-1.973 0-3.928-.237-5.752-.699-1.823-.46-3.48-1.137-4.876-1.99-1.396-.852-2.503-1.864-3.259-2.978C1.013 11.58.624 10.386.624 9.18c0-1.205.389-2.4 1.144-3.513.756-1.114 1.863-2.126 3.259-2.978C6.423 1.836 8.08 1.16 9.903.699A23.594 23.594 0 0 1 15.655 0c3.987 0 7.81.967 10.629 2.689 2.819 1.721 4.403 4.056 4.403 6.491 0 2.435-1.584 4.77-4.403 6.491-2.819 1.722-6.642 2.69-10.629 2.69Zm70.146 0a23.59 23.59 0 0 1-5.752-.699c-1.824-.46-3.481-1.137-4.877-1.99-1.396-.852-2.503-1.864-3.258-2.978-.755-1.114-1.144-2.307-1.144-3.513 0-1.205.389-2.4 1.144-3.513.755-1.114 1.862-2.126 3.258-2.978 1.396-.853 3.053-1.529 4.877-1.99A23.593 23.593 0 0 1 85.8 0c3.986 0 7.81.967 10.629 2.689 2.818 1.721 4.402 4.056 4.402 6.491 0 2.435-1.584 4.77-4.402 6.491-2.82 1.722-6.643 2.69-10.63 2.69ZM15.655 61.2c-1.973 0-3.928-.237-5.752-.698-1.823-.461-3.48-1.138-4.876-1.99-1.396-.852-2.503-1.865-3.259-2.978C1.013 54.42.624 53.226.624 52.02c0-1.206.389-2.4 1.144-3.514.756-1.113 1.863-2.125 3.259-2.978 1.396-.852 3.053-1.528 4.876-1.99a23.591 23.591 0 0 1 5.752-.699c3.987 0 7.81.968 10.629 2.69 2.819 1.72 4.403 4.056 4.403 6.49 0 2.435-1.584 4.77-4.403 6.492-2.819 1.721-6.642 2.689-10.629 2.689Zm70.146 0c-1.974 0-3.929-.237-5.752-.698-1.824-.461-3.481-1.138-4.877-1.99-1.396-.852-2.503-1.865-3.258-2.978-.755-1.114-1.144-2.308-1.144-3.513 0-1.206.389-2.4 1.144-3.514.755-1.113 1.862-2.125 3.258-2.978 1.396-.852 3.053-1.528 4.877-1.99a23.59 23.59 0 0 1 5.752-.699c3.986 0 7.81.968 10.629 2.69 2.818 1.72 4.402 4.056 4.402 6.49 0 2.435-1.584 4.77-4.402 6.492-2.82 1.721-6.643 2.689-10.63 2.689Zm-70.146 42.841c-3.986 0-7.81-.967-10.628-2.689-2.82-1.721-4.403-4.056-4.403-6.49 0-2.436 1.584-4.77 4.403-6.492 2.819-1.722 6.642-2.689 10.628-2.689 3.987 0 7.81.967 10.629 2.689 2.819 1.721 4.403 4.056 4.403 6.491 0 2.435-1.584 4.77-4.403 6.491-2.819 1.722-6.642 2.689-10.629 2.689Zm70.146 0c-3.987 0-7.81-.967-10.629-2.689-2.819-1.721-4.402-4.056-4.402-6.49 0-2.436 1.583-4.77 4.402-6.492 2.82-1.722 6.642-2.689 10.629-2.689 3.986 0 7.81.967 10.629 2.689 2.818 1.721 4.402 4.056 4.402 6.491 0 2.435-1.584 4.77-4.402 6.491-2.82 1.722-6.643 2.689-10.63 2.689Z"/></svg>