<svg xmlns="http://www.w3.org/2000/svg" width="40" height="41" fill="none"><path fill="#fff" d="M40 9.6a26.014 26.014 0 0 0-.2-2.58 8.6 8.6 0 0 0-.74-2.16 7.4 7.4 0 0 0-1.42-2 7.8 7.8 0 0 0-2-1.42 8.6 8.6 0 0 0-2.16-.72A19.999 19.999 0 0 0 30.92.5H9.1a26 26 0 0 0-2.58.2 8.6 8.6 0 0 0-2.16.74 7.4 7.4 0 0 0-2 1.42 7.8 7.8 0 0 0-1.42 2 8.6 8.6 0 0 0-.72 2.16A20 20 0 0 0 0 9.58V31.4c.024.863.09 1.724.2 2.58a8.6 8.6 0 0 0 .74 2.16 7.4 7.4 0 0 0 1.42 2 7.802 7.802 0 0 0 2 1.42 8.598 8.598 0 0 0 2.16.72c.848.128 1.703.202 2.56.22H30.9c.863-.024 1.724-.09 2.58-.2a8.6 8.6 0 0 0 2.16-.74 7.4 7.4 0 0 0 2-1.42 7.801 7.801 0 0 0 1.42-2 8.599 8.599 0 0 0 .72-2.16c.128-.848.202-1.703.22-2.56V9.6ZM20.46 34.5a14.2 14.2 0 0 1-6.86-1.8l-7.6 2 2-7.44a14.2 14.2 0 0 1-2-7.16 14.36 14.36 0 1 1 14.46 14.4Zm0-26.26a12 12 0 0 0-10.1 18.26l.28.46-1.2 4.38L14 30.1l.44.26a12 12 0 0 0 6 1.66 12 12 0 0 0 0-24l.02.22Zm7 17.04a3.641 3.641 0 0 1-2.42 1.7 4.6 4.6 0 0 1-2.24-.14 18.005 18.005 0 0 1-2-.76 16 16 0 0 1-6.12-5.4 7 7 0 0 1-1.46-3.7 4 4 0 0 1 1.26-3 1.3 1.3 0 0 1 .96-.44H16c.22 0 .52 0 .8.62s1.02 2.48 1.12 2.66a.68.68 0 0 1 0 .62 2.2 2.2 0 0 1-.36.6c-.18.22-.38.48-.54.64-.16.16-.36.36-.16.72a11.202 11.202 0 0 0 2 2.48 10 10 0 0 0 2.88 1.78c.36.18.58.16.78 0 .2-.16.9-1.04 1.14-1.4.24-.36.48-.3.8-.18.32.12 2.1.98 2.46 1.16.36.18.58.26.68.42a3.12 3.12 0 0 1-.14 1.56v.06Z"/></svg>