<svg width="23" height="23" viewBox="0 0 23 23" fill="none" xmlns="http://www.w3.org/2000/svg">
<path d="M20.1084 1.5H2.1084C1.55611 1.5 1.1084 2.05964 1.1084 2.75V12.75C1.1084 13.4404 1.55611 14 2.1084 14H20.1084C20.6607 14 21.1084 13.4404 21.1084 12.75V2.75C21.1084 2.05964 20.6607 1.5 20.1084 1.5Z" fill="#163860" stroke="white" stroke-width="2" stroke-linecap="round" stroke-linejoin="round"/>
<path d="M5.10864 9.00005H17.1086V14.0001H5.10864V9.00005Z" fill="#163860" stroke="white" stroke-width="2" stroke-linecap="round" stroke-linejoin="round"/>
<path d="M15.1084 5.24998H17.1084H15.1084ZM11.1084 17.75V21.5V17.75ZM7.1084 19V20.25V19ZM15.1084 19V20.25V19Z" fill="#163860"/>
<path d="M15.1084 5.24998H17.1084M11.1084 17.75V21.5M7.1084 19V20.25M15.1084 19V20.25" stroke="white" stroke-width="2" stroke-linecap="round" stroke-linejoin="round"/>
</svg>
