<svg width="7" height="7" viewBox="0 0 7 7" fill="none" xmlns="http://www.w3.org/2000/svg">
<path d="M0.664669 0.664669C0.77015 0.559319 0.913135 0.500145 1.06222 0.500145C1.2113 0.500145 1.35428 0.559319 1.45976 0.664669L3.5 2.70416L5.54024 0.664669C5.59244 0.612463 5.65442 0.57105 5.72263 0.542796C5.79084 0.514542 5.86395 0.5 5.93778 0.5C6.01162 0.5 6.08472 0.514542 6.15294 0.542796C6.22115 0.57105 6.28312 0.612463 6.33533 0.664669C6.38754 0.716876 6.42895 0.778854 6.4572 0.847065C6.48546 0.915276 6.5 0.988384 6.5 1.06222C6.5 1.13605 6.48546 1.20916 6.4572 1.27737C6.42895 1.34558 6.38754 1.40756 6.33533 1.45976L4.29584 3.5L6.33533 5.54024C6.44077 5.64567 6.5 5.78868 6.5 5.93778C6.5 6.08689 6.44077 6.22989 6.33533 6.33533C6.22989 6.44077 6.08689 6.5 5.93778 6.5C5.78868 6.5 5.64567 6.44077 5.54024 6.33533L3.5 4.29584L1.45976 6.33533C1.35433 6.44077 1.21132 6.5 1.06222 6.5C0.913107 6.5 0.770105 6.44077 0.664669 6.33533C0.559233 6.22989 0.5 6.08689 0.5 5.93778C0.5 5.78868 0.559233 5.64567 0.664669 5.54024L2.70416 3.5L0.664669 1.45976C0.559319 1.35428 0.500145 1.2113 0.500145 1.06222C0.500145 0.913135 0.559319 0.77015 0.664669 0.664669Z" fill="#163860"/>
</svg>
