<svg xmlns="http://www.w3.org/2000/svg" width="21" height="21" fill="none"><path fill="#163860" fill-rule="evenodd" d="M13.068 20.622c4.3-3.44 6.688-7.442 7.166-12.008.744-7.108-4.36-10.587-6.948-7.462-2.586 3.126-1.036 7.094.837 8.18 1.873 1.085 3.018.706 2.819 2.156-.2 1.45-2.865 5.468-5.206 7.34a.632.632 0 0 0-.065.725l.58.938c.25.406.491.39.817.131m-11.321 0c4.3-3.44 6.688-7.442 7.166-12.008.745-7.108-4.36-10.587-6.947-7.462C-.62 4.278.93 8.246 2.803 9.332c1.874 1.085 3.019.706 2.819 2.156-.2 1.45-2.865 5.468-5.206 7.34a.632.632 0 0 0-.065.725l.579.938c.251.406.492.39.817.131" clip-rule="evenodd"/></svg>