<svg xmlns="http://www.w3.org/2000/svg" width="40" height="41" fill="none"><path fill="#fff" d="M23.22 20.985a3.2 3.2 0 1 1-3.12-3.26 3.24 3.24 0 0 1 3.12 3.26Z"/><path fill="#fff" d="M25.526 10.966h-10.85a4.048 4.048 0 0 0-4.048 4.048v11.094a4.048 4.048 0 0 0 4.048 4.047h10.85a4.047 4.047 0 0 0 4.048-4.047V15.034a4.053 4.053 0 0 0-4.048-4.068ZM20.1 26.412a5.406 5.406 0 1 1 5.284-5.406A5.34 5.34 0 0 1 20.1 26.41Zm5.872-10.81a.992.992 0 0 1-.992-1.012 1.012 1.012 0 1 1 2.024 0 .992.992 0 0 1-1.114 1.012h.082Z"/><path fill="#fff" d="M20.1.5a20 20 0 1 0-.2 40 20 20 0 0 0 .2-40Zm12.146 25.404a6.78 6.78 0 0 1-6.82 6.822H14.778a6.78 6.78 0 0 1-6.822-6.82v-10.65a6.78 6.78 0 0 1 6.82-6.822h10.65a6.78 6.78 0 0 1 6.82 6.82v10.65Z"/></svg>