<svg xmlns="http://www.w3.org/2000/svg" width="31" height="31" fill="none"><path fill="#fff" fill-rule="evenodd" d="m17.045 1.215 2.2 1.871c.48.408 1.075.655 1.703.705l2.879.233a3.001 3.001 0 0 1 2.75 2.75l.232 2.879c.051.627.298 1.223.705 1.702l1.872 2.2a3.001 3.001 0 0 1 0 3.89l-1.872 2.2a3.002 3.002 0 0 0-.705 1.702l-.233 2.88a3.001 3.001 0 0 1-2.75 2.749l-2.878.233a3.002 3.002 0 0 0-1.703.705l-2.2 1.871a3.001 3.001 0 0 1-3.889 0l-2.2-1.871a3.003 3.003 0 0 0-1.703-.706l-2.879-.232a3.001 3.001 0 0 1-2.75-2.75l-.232-2.879a3.002 3.002 0 0 0-.705-1.702l-1.871-2.2a3.001 3.001 0 0 1 0-3.89l1.87-2.2c.409-.48.655-1.075.706-1.702l.233-2.88a3.001 3.001 0 0 1 2.75-2.749l2.878-.233a3.002 3.002 0 0 0 1.703-.705l2.2-1.871a3.001 3.001 0 0 1 3.889 0Zm3.698 8.92-7.148 7.187-3.44-3.439-2.12 2.121 5.56 5.56 9.27-9.308-2.122-2.121Z" clip-rule="evenodd"/></svg>