<svg xmlns="http://www.w3.org/2000/svg" width="26" height="25" fill="none"><path fill="#fff" d="m24.836 19.32-5.718-5.718a3.625 3.625 0 0 0-4.17-.678L9.745 7.719V4.687L3.494 0 .37 3.125l4.688 6.25h3.032l5.204 5.204c-.664 1.357-.449 3.041.68 4.17l5.717 5.716a1.815 1.815 0 0 0 2.573 0l2.573-2.573a1.824 1.824 0 0 0 0-2.573Zm-8.271-8.335c1.381 0 2.68.537 3.657 1.514l.947.947a6.913 6.913 0 0 0 2.139-1.44 7.021 7.021 0 0 0 1.85-6.674.584.584 0 0 0-.981-.269l-3.633 3.632-3.315-.551-.552-3.315 3.633-3.633A.59.59 0 0 0 20.03.21a7.034 7.034 0 0 0-6.67 1.85c-1.39 1.392-2.045 3.228-2.01 5.058l4.008 4.009a5.323 5.323 0 0 1 1.206-.142Zm-5.073 4.004L8.723 12.22l-7.44 7.446A3.124 3.124 0 1 0 5.7 24.085l6.035-6.035c-.371-.972-.483-2.031-.244-3.061Zm-7.998 8.056a1.175 1.175 0 0 1-1.172-1.172c0-.65.523-1.172 1.172-1.172a1.172 1.172 0 0 1 0 2.343Z"/></svg>