<svg width="12" height="12" viewBox="0 0 12 12" xmlns="http://www.w3.org/2000/svg">
<path d="M7.2 8.21053H4.8V6.94737H0V10.7368C0 11.0719 0.126428 11.3931 0.351472 11.63C0.576515 11.8669 0.88174 12 1.2 12H10.8C11.1183 12 11.4235 11.8669 11.6485 11.63C11.8736 11.3931 12 11.0719 12 10.7368V6.94737H7.2V8.21053ZM10.8 2.52632H9.6V1.26316C9.6 0.928148 9.47357 0.606858 9.24853 0.36997C9.02348 0.133082 8.71826 0 8.4 0H3.6C3.28174 0 2.97652 0.133082 2.75147 0.36997C2.52643 0.606858 2.4 0.928148 2.4 1.26316V2.52632H1.2C0.88174 2.52632 0.576515 2.6594 0.351472 2.89629C0.126428 3.13317 0 3.45446 0 3.78947V6.31579H12V3.78947C12 3.45446 11.8736 3.13317 11.6485 2.89629C11.4235 2.6594 11.1183 2.52632 10.8 2.52632ZM8.4 2.52632H3.6V1.26316H8.4V2.52632Z"/>
</svg>
