<svg xmlns="http://www.w3.org/2000/svg" width="23" height="23" fill="none"><path fill="#163860" stroke="#fff" stroke-linecap="round" stroke-linejoin="round" stroke-width="2" d="M20.108 1.5h-18c-.552 0-1 .56-1 1.25v10c0 .69.448 1.25 1 1.25h18c.553 0 1-.56 1-1.25v-10c0-.69-.447-1.25-1-1.25Z"/><path fill="#163860" stroke="#fff" stroke-linecap="round" stroke-linejoin="round" stroke-width="2" d="M5.109 9h12v5h-12V9Z"/><path fill="#163860" d="M15.108 5.25h2-2Zm-4 12.5v3.75-3.75Zm-4 1.25v1.25V19Zm8 0v1.25V19Z"/><path stroke="#fff" stroke-linecap="round" stroke-linejoin="round" stroke-width="2" d="M15.108 5.25h2m-6 12.5v3.75m-4-2.5v1.25m8-1.25v1.25"/></svg>