<svg width="12" height="12" viewBox="0 0 12 12" xmlns="http://www.w3.org/2000/svg">
<path d="M4.625 8.5606C4.89583 8.6895 5.13958 8.8477 5.35625 9.0352C5.57292 9.2227 5.76042 9.43363 5.91875 9.668C6.07708 9.90238 6.19583 10.1524 6.275 10.418C6.35417 10.6836 6.39583 10.961 6.4 11.25H5.6C5.6 10.9414 5.5375 10.6504 5.4125 10.377C5.2875 10.1035 5.11667 9.86527 4.9 9.66214C4.68333 9.45902 4.42708 9.29692 4.13125 9.17582C3.83542 9.05473 3.525 8.99614 3.2 9.00005C2.86667 9.00005 2.55625 9.05864 2.26875 9.17582C1.98125 9.29301 1.72708 9.45316 1.50625 9.65629C1.28542 9.85941 1.1125 10.0996 0.9875 10.377C0.8625 10.6543 0.8 10.9453 0.8 11.25H0C0 10.9649 0.0416667 10.6895 0.125 10.4239C0.208333 10.1582 0.327083 9.90823 0.48125 9.67386C0.635417 9.43949 0.820833 9.22856 1.0375 9.04106C1.25417 8.85356 1.5 8.69341 1.775 8.5606C1.46667 8.34576 1.22708 8.08014 1.05625 7.76374C0.885417 7.44734 0.8 7.10945 0.8 6.75008C0.8 6.44149 0.8625 6.15048 0.9875 5.87705C1.1125 5.60361 1.28333 5.36534 1.5 5.16221C1.71667 4.95909 1.97083 4.79698 2.2625 4.67589C2.55417 4.5548 2.86667 4.49621 3.2 4.50011C3.58333 4.50011 3.94375 4.58019 4.28125 4.74035C4.61875 4.9005 4.90208 5.1251 5.13125 5.41416C5.28958 5.1212 5.49167 4.85948 5.7375 4.62902C5.98333 4.39855 6.2625 4.2091 6.575 4.06067C6.26667 3.84583 6.02708 3.58021 5.85625 3.26381C5.68542 2.9474 5.6 2.60952 5.6 2.25015C5.6 1.94156 5.6625 1.65055 5.7875 1.37712C5.9125 1.10368 6.08333 0.865404 6.3 0.662282C6.51667 0.45916 6.77083 0.297054 7.0625 0.175962C7.35417 0.0548698 7.66667 -0.00372309 8 0.000183103C8.32917 0.000183103 8.63958 0.058776 8.93125 0.175962C9.22292 0.293147 9.47708 0.453301 9.69375 0.656423C9.91042 0.859545 10.0833 1.09978 10.2125 1.37712C10.3417 1.65445 10.4042 1.94547 10.4 2.25015C10.4 2.60952 10.3146 2.9474 10.1438 3.26381C9.97292 3.58021 9.73333 3.84583 9.425 4.06067C9.69583 4.18957 9.93958 4.34777 10.1562 4.53527C10.3729 4.72277 10.5604 4.9337 10.7188 5.16807C10.8771 5.40244 10.9958 5.65244 11.075 5.91806C11.1542 6.18368 11.1958 6.46102 11.2 6.75008H10.4C10.4 6.44149 10.3375 6.15048 10.2125 5.87705C10.0875 5.60361 9.91667 5.36534 9.7 5.16221C9.48333 4.95909 9.22708 4.79698 8.93125 4.67589C8.63542 4.5548 8.325 4.49621 8 4.50011C7.66667 4.50011 7.35625 4.55871 7.06875 4.67589C6.78125 4.79308 6.52708 4.95323 6.30625 5.15635C6.08542 5.35948 5.9125 5.59971 5.7875 5.87705C5.6625 6.15439 5.6 6.4454 5.6 6.75008C5.6 7.10945 5.51458 7.44734 5.34375 7.76374C5.17292 8.08014 4.93333 8.34576 4.625 8.5606ZM6.4 2.25015C6.4 2.45718 6.44167 2.65053 6.525 2.83022C6.60833 3.0099 6.72292 3.17006 6.86875 3.31068C7.01458 3.4513 7.18333 3.55872 7.375 3.63294C7.56667 3.70716 7.775 3.74622 8 3.75013C8.22083 3.75013 8.42708 3.71106 8.61875 3.63294C8.81042 3.55482 8.98125 3.4474 9.13125 3.31068C9.28125 3.17396 9.39583 3.01576 9.475 2.83608C9.55417 2.65639 9.59583 2.46108 9.6 2.25015C9.6 2.04312 9.55833 1.84976 9.475 1.67008C9.39167 1.49039 9.27708 1.33024 9.13125 1.18962C8.98542 1.049 8.81667 0.941575 8.625 0.867357C8.43333 0.79314 8.225 0.754078 8 0.750172C7.77917 0.750172 7.57292 0.789234 7.38125 0.867357C7.18958 0.945481 7.01875 1.0529 6.86875 1.18962C6.71875 1.32633 6.60417 1.48454 6.525 1.66422C6.44583 1.8439 6.40417 2.03921 6.4 2.25015ZM1.6 6.75008C1.6 6.95711 1.64167 7.15046 1.725 7.33015C1.80833 7.50983 1.92292 7.66999 2.06875 7.81061C2.21458 7.95123 2.38333 8.05865 2.575 8.13287C2.76667 8.20709 2.975 8.24615 3.2 8.25006C3.42083 8.25006 3.62708 8.211 3.81875 8.13287C4.01042 8.05475 4.18125 7.94733 4.33125 7.81061C4.48125 7.67389 4.59583 7.51569 4.675 7.33601C4.75417 7.15632 4.79583 6.96101 4.8 6.75008C4.8 6.54305 4.75833 6.3497 4.675 6.17001C4.59167 5.99033 4.47708 5.83017 4.33125 5.68955C4.18542 5.54893 4.01667 5.44151 3.825 5.36729C3.63333 5.29307 3.425 5.25401 3.2 5.2501C2.97917 5.2501 2.77292 5.28917 2.58125 5.36729C2.38958 5.44541 2.21875 5.55283 2.06875 5.68955C1.91875 5.82627 1.80417 5.98447 1.725 6.16415C1.64583 6.34384 1.60417 6.53915 1.6 6.75008ZM11 12L9.2 10.6817L7.4 12L8.125 9.89066L6.4 8.62505H8.55625L9.2 6.75008L9.84375 8.62505H12L10.275 9.89066L11 12Z"/>
</svg>
