<svg width="13" height="12" viewBox="0 0 13 12" xmlns="http://www.w3.org/2000/svg">
<path d="M6.95415 8.05016L7.63127 7.44828L6.95415 6.77116L11.2426 2.48276L12.1454 2.18182L12.973 0.526646L12.4463 0L10.7159 0.752351L10.3397 1.65517L6.12657 5.94357L5.44945 5.26646L4.84757 5.94357C4.84757 5.94357 5.44945 6.39498 4.77233 7.0721C4.39616 7.44828 3.79428 6.99686 2.66575 8.12539L1.08581 9.70533C1.08581 9.70533 0.634403 10.4577 1.53722 11.3605C2.44005 12.2633 3.1924 11.8119 3.1924 11.8119L4.77233 10.232C5.82563 9.17868 5.44945 8.50157 5.75039 8.20063C6.42751 7.52351 6.95415 8.05016 6.95415 8.05016ZM4.62186 7.74922L5.14851 8.27586L2.28958 11.1348L1.76293 10.6082L4.62186 7.74922Z"/>
<path d="M8.72218 6.16928L8.04506 6.8464L8.72218 7.52351L7.81936 8.42633L11.0545 11.6614C11.5059 12.1129 12.183 12.1129 12.6344 11.6614C13.0858 11.21 13.0858 10.5329 12.6344 10.0815L8.72218 6.16928ZM11.6563 11.2853C11.3554 11.2853 11.0545 11.0596 11.0545 10.6834C11.0545 10.3824 11.2802 10.0815 11.6563 10.0815C12.0325 10.0815 12.2582 10.3072 12.2582 10.6834C12.2582 11.0596 12.0325 11.2853 11.6563 11.2853ZM3.68143 6.01881L4.35854 5.5674L5.48707 4.2884L6.16418 4.96552L6.8413 4.2884L6.76606 4.21317C6.91653 3.83699 6.99177 3.46082 6.99177 3.0094C6.99177 1.35423 5.63754 0 3.98237 0C3.53096 0 3.15478 0.0752351 2.7786 0.225705L4.96042 2.40752L3.38049 3.98746L1.19867 1.80564C1.0482 2.18182 0.972961 2.55799 0.972961 3.0094C0.972961 4.58934 2.17672 5.7931 3.68143 6.01881Z"/>
</svg>
