<svg width="13" height="10" viewBox="0 0 13 10" xmlns="http://www.w3.org/2000/svg">
<path d="M11.473 2.77778V2.22222L9.97296 3.33333L8.47296 2.22222V2.77778L9.83296 3.78889C9.87378 3.81876 9.92159 3.83468 9.97046 3.83468C10.0193 3.83468 10.0671 3.81876 10.108 3.78889L11.473 2.77778ZM11.973 0H1.97296C1.42296 0 0.972961 0.5 0.972961 1.11111V8.88889C0.972961 9.5 1.42296 10 1.97296 10H11.973C12.523 10 12.968 9.5 12.968 8.88889L12.973 1.11111C12.973 0.5 12.523 0 11.973 0ZM4.97296 1.66667C5.80296 1.66667 6.47296 2.41111 6.47296 3.33333C6.47296 4.25556 5.80296 5 4.97296 5C4.14296 5 3.47296 4.25556 3.47296 3.33333C3.47296 2.41111 4.14296 1.66667 4.97296 1.66667ZM7.97296 8.33333H1.97296V7.77778C1.97296 6.66667 3.97296 6.05556 4.97296 6.05556C5.97296 6.05556 7.97296 6.66667 7.97296 7.77778V8.33333ZM11.723 5H8.22296C8.08296 5 7.97296 4.87778 7.97296 4.72222V1.94444C7.97296 1.78889 8.08296 1.66667 8.22296 1.66667H11.723C11.863 1.66667 11.973 1.78889 11.973 1.94444V4.72222C11.973 4.87778 11.863 5 11.723 5Z"/>
</svg>
