<svg width="40" height="41" viewBox="0 0 40 41" fill="none" xmlns="http://www.w3.org/2000/svg">
<path d="M23.22 20.9853C23.2079 21.6189 23.008 22.2346 22.6456 22.7544C22.2832 23.2743 21.7746 23.6748 21.1844 23.9052C20.5941 24.1357 19.9486 24.1857 19.3299 24.0489C18.7112 23.9121 18.147 23.5947 17.7088 23.1369C17.2707 22.6791 16.9783 22.1015 16.8688 21.4774C16.7593 20.8532 16.8376 20.2106 17.0937 19.631C17.3498 19.0514 17.7723 18.5608 18.3075 18.2216C18.8427 17.8823 19.4666 17.7096 20.1001 17.7254C20.9419 17.7565 21.7384 18.1143 22.3208 18.7229C22.9033 19.3315 23.2258 20.143 23.22 20.9853Z" fill="white"/>
<path d="M25.5261 10.9656H14.6762C13.6027 10.9656 12.5731 11.3921 11.8139 12.1512C11.0548 12.9103 10.6283 13.94 10.6283 15.0136V26.1075C10.6283 26.6391 10.733 27.1655 10.9364 27.6566C11.1399 28.1477 11.438 28.594 11.8139 28.9699C12.1898 29.3457 12.636 29.6439 13.1272 29.8473C13.6183 30.0508 14.1447 30.1555 14.6762 30.1555H25.5261C26.0577 30.1555 26.5841 30.0508 27.0752 29.8473C27.5663 29.6439 28.0126 29.3457 28.3884 28.9699C28.7643 28.594 29.0625 28.1477 29.2659 27.6566C29.4694 27.1655 29.5741 26.6391 29.5741 26.1075V15.0336C29.5762 14.5004 29.473 13.9721 29.2706 13.4789C29.0682 12.9857 28.7704 12.5373 28.3944 12.1594C28.0183 11.7815 27.5714 11.4816 27.0792 11.2767C26.587 11.0718 26.0592 10.9661 25.5261 10.9656ZM20.1002 26.4115C19.0261 26.4357 17.9692 26.1394 17.0643 25.5603C16.1594 24.9812 15.4476 24.1457 15.0196 23.1602C14.5917 22.1748 14.4671 21.0842 14.6617 20.0277C14.8563 18.9711 15.3613 17.9965 16.1122 17.2282C16.8632 16.4599 17.826 15.9328 18.8779 15.7141C19.9297 15.4954 21.0228 15.5951 22.0178 16.0005C23.0127 16.4058 23.8643 17.0984 24.4639 17.9898C25.0635 18.8813 25.3838 19.9312 25.3841 21.0055C25.3928 21.7076 25.263 22.4046 25.002 23.0564C24.7411 23.7083 24.3541 24.3023 23.8633 24.8044C23.3725 25.3065 22.7875 25.707 22.1418 25.9827C21.4961 26.2585 20.8023 26.4042 20.1002 26.4115ZM25.9721 15.6016C25.8401 15.6016 25.7095 15.5753 25.5878 15.5242C25.4661 15.4731 25.3559 15.3982 25.2635 15.304C25.1711 15.2097 25.0985 15.098 25.0498 14.9753C25.0011 14.8527 24.9775 14.7215 24.9801 14.5896C24.9801 14.3212 25.0867 14.0638 25.2765 13.874C25.4663 13.6842 25.7237 13.5776 25.9921 13.5776C26.2605 13.5776 26.5179 13.6842 26.7077 13.874C26.8975 14.0638 27.0041 14.3212 27.0041 14.5896C27.0081 14.7324 26.9811 14.8745 26.9251 15.006C26.8691 15.1375 26.7853 15.2553 26.6795 15.3514C26.5737 15.4475 26.4484 15.5196 26.3122 15.5628C26.1759 15.606 26.0319 15.6192 25.8901 15.6016H25.9721Z" fill="white"/>
<path d="M20.1 0.500006C14.7957 0.473485 9.69819 2.55518 5.92875 6.28713C2.15932 10.0191 0.0267717 15.0956 0.000250345 20.3999C-0.026271 25.7042 2.0554 30.8018 5.78733 34.5713C9.51926 38.3407 14.5957 40.4733 19.9 40.4998C22.5264 40.5129 25.1297 40.0086 27.5612 39.0157C29.9927 38.0227 32.2048 36.5606 34.0713 34.7127C35.9377 32.8648 37.4219 30.6674 38.4391 28.2459C39.4563 25.8244 39.9866 23.2263 39.9998 20.5999C40.0129 17.9735 39.5086 15.3702 38.5156 12.9387C37.5227 10.5071 36.0605 8.295 34.2127 6.42855C32.3648 4.5621 30.1674 3.0779 27.746 2.06068C25.3245 1.04345 22.7264 0.513138 20.1 0.500006ZM32.2458 25.9039C32.2514 26.8011 32.0788 27.6906 31.7381 28.5206C31.3974 29.3507 30.8953 30.1049 30.2609 30.7395C29.6265 31.374 28.8725 31.8763 28.0425 32.2173C27.2126 32.5583 26.3232 32.7312 25.4259 32.7258H14.7781C13.8808 32.7314 12.9914 32.5588 12.1613 32.2181C11.3313 31.8774 10.5771 31.3752 9.94253 30.7409C9.30797 30.1065 8.80564 29.3525 8.46466 28.5225C8.12368 27.6925 7.95084 26.8031 7.95615 25.9059V15.2559C7.95058 14.3587 8.12316 13.4692 8.46389 12.6392C8.80463 11.8091 9.30674 11.0549 9.94111 10.4204C10.5755 9.78579 11.3295 9.28346 12.1595 8.94248C12.9894 8.6015 13.8788 8.42866 14.7761 8.43397H25.4259C26.323 8.42866 27.2122 8.60144 28.0421 8.94229C28.8719 9.28315 29.6258 9.7853 30.2602 10.4197C30.8945 11.054 31.3967 11.8079 31.7375 12.6378C32.0784 13.4676 32.2512 14.3568 32.2458 15.2539V25.9039Z" fill="white"/>
</svg>
